<svg width="100" height="100" viewBox="0 0 100 100" fill="none" xmlns="http://www.w3.org/2000/svg">
  <!-- Microphone base -->
  <circle cx="50" cy="50" r="40" fill="#4F46E5" />
  
  <!-- Microphone -->
  <rect x="40" y="30" width="20" height="30" rx="8" fill="white" />
  <rect x="46" y="10" width="8" height="20" rx="4" fill="white" />
  
  <!-- Sound waves -->
  <path d="M30 50 C25 50, 20 45, 20 40" stroke="white" stroke-width="3" stroke-linecap="round" />
  <path d="M30 50 C25 50, 20 55, 20 60" stroke="white" stroke-width="3" stroke-linecap="round" />
  <path d="M70 50 C75 50, 80 45, 80 40" stroke="white" stroke-width="3" stroke-linecap="round" />
  <path d="M70 50 C75 50, 80 55, 80 60" stroke="white" stroke-width="3" stroke-linecap="round" />
  
  <!-- AI brain element -->
  <circle cx="50" cy="75" r="10" fill="white" />
  <path d="M45 73 L55 73" stroke="#4F46E5" stroke-width="2" stroke-linecap="round" />
  <path d="M45 77 L55 77" stroke="#4F46E5" stroke-width="2" stroke-linecap="round" />
  <path d="M50 70 L50 80" stroke="#4F46E5" stroke-width="2" stroke-linecap="round" />
  <path d="M46 71 L54 79" stroke="#4F46E5" stroke-width="2" stroke-linecap="round" />
  <path d="M54 71 L46 79" stroke="#4F46E5" stroke-width="2" stroke-linecap="round" />
</svg> 